<svg xmlns="http://www.w3.org/2000/svg" width="15.835" height="15.835" viewBox="0 0 15.835 15.835">
  <g id="Grupo_17372" data-name="Grupo 17372" transform="translate(-1094.337 -656.962)">
    <g id="Grupo_347" data-name="Grupo 347" transform="translate(-91.696 -30.832)">
      <path id="Trazado_554" data-name="Trazado 554" d="M1186.033,695.711a1.118,1.118,0,0,0,1.115,1.115h13.605a1.115,1.115,0,0,0,0-2.23h-13.605a1.119,1.119,0,0,0-1.115,1.115Zm0,0" fill="#0066eb"/>
    </g>
    <g id="Grupo_348" data-name="Grupo 348" transform="translate(-91.696 -30.832)">
      <path id="Trazado_555" data-name="Trazado 555" d="M1193.951,703.629a1.119,1.119,0,0,0,1.115-1.115v-13.6a1.116,1.116,0,0,0-2.231,0v13.6a1.119,1.119,0,0,0,1.116,1.115Zm0,0" fill="#0066eb"/>
    </g>
  </g>
</svg>
